# xmcd
#
# Track frame offsets: 
#        150
#        14098
#        26887
#        39753
#        54420
#        78515
#        94567
#        108610
#        120762
#        132014
#        148190
#
# Disc length: 2157 seconds
#
# Revision: 0
# Processed by: cddbd v1.5.2PL0 Copyright (c) Steve Scherf et al.
# Submitted via: ExactAudioCopy v1.0b3
#
DISCID=89086b0b
DTITLE=Lenny Williams - Rise Sleeping Beauty
DYEAR=1975
DGENRE=Soul
TTITLE0=Since I Met You
TTITLE1=I'm A Pioneer
TTITLE2='Cause I Love You
TTITLE3=To Be A Star
TTITLE4=Shame
TTITLE5=Loving Station
TTITLE6=Motion
TTITLE7=Run On See What The Ends Gonna Be
TTITLE8=Son Of Thieves, Slaves And Braves
TTITLE9=Rise Sleeping Beauty
TTITLE10=Since I Met You (promo single version)
EXTD=
EXTT0=
EXTT1=
EXTT2=
EXTT3=
EXTT4=
EXTT5=
EXTT6=
EXTT7=
EXTT8=
EXTT9=
EXTT10=
PLAYORDER=
